<svg xmlns="http://www.w3.org/2000/svg" xmlns:xlink="http://www.w3.org/1999/xlink" width="39.25" height="37" viewBox="0 0 39.25 37">
  <metadata><?xpacket begin="﻿" id="W5M0MpCehiHzreSzNTczkc9d"?>
<x:xmpmeta xmlns:x="adobe:ns:meta/" x:xmptk="Adobe XMP Core 5.6-c138 79.159824, 2016/09/14-01:09:01        ">
   <rdf:RDF xmlns:rdf="http://www.w3.org/1999/02/22-rdf-syntax-ns#">
      <rdf:Description rdf:about=""/>
   </rdf:RDF>
</x:xmpmeta>
                                                                                                    
                                                                                                    
                                                                                                    
                                                                                                    
                                                                                                    
                                                                                                    
                                                                                                    
                                                                                                    
                                                                                                    
                                                                                                    
                                                                                                    
                                                                                                    
                                                                                                    
                                                                                                    
                                                                                                    
                                                                                                    
                                                                                                    
                                                                                                    
                                                                                                    
                                                                                                    
                           
<?xpacket end="w"?></metadata>
<defs>
    <style>
      .cls-1 {
        fill-rule: evenodd;
        fill: url(#linear-gradient);
        filter: url(#filter);
      }
    </style>
    <linearGradient id="linear-gradient" x1="1127.625" y1="796.156" x2="1164.625" y2="833.156" gradientUnits="userSpaceOnUse">
      <stop offset="0" stop-color="#fff"/>
      <stop offset="1" stop-color="#fff"/>
    </linearGradient>
    <filter id="filter" x="1126.5" y="796.156" width="39.25" height="37" filterUnits="userSpaceOnUse">
      <feFlood result="flood" flood-color="#ff3b4a"/>
      <feComposite result="composite" operator="in" in2="SourceGraphic"/>
      <feBlend result="blend" in2="SourceGraphic"/>
    </filter>
  </defs>
  <path id="Pencil" class="cls-1" d="M1165.7,809.067a23.117,23.117,0,0,0-11.72-12.829,0.842,0.842,0,0,0-.93.139l-17.49,15.962-2.01,1.843a0.886,0.886,0,0,0-.27.345,0.23,0.23,0,0,1-.02.073l-4.71,12.21-2,5.216a0.829,0.829,0,0,0,.16.863,0.84,0.84,0,0,0,.62.269,0.808,0.808,0,0,0,.23-0.033l5.38-1.524,12.65-3.587a1.188,1.188,0,0,0,.23-0.1c0.04-.028.07-0.058,0.11-0.088l2.07-1.885,17.48-15.963A0.836,0.836,0,0,0,1165.7,809.067Zm-35.92,19.206a0.562,0.562,0,0,0,.11.052,4.158,4.158,0,0,1,1.65,1.809,0.461,0.461,0,0,1,.04.113l-2.87.818Zm15.17-1.814-11.72,3.321c-0.03-.072-0.09-0.127-0.12-0.2a5.468,5.468,0,0,0-2.53-2.766c-0.07-.041-0.12-0.1-0.18-0.14l4.37-11.351,1.31-1.189,1.06,1.156,9.11,9.975Zm2.53-2.318-2.64-2.9,13.9-12.683a0.843,0.843,0,0,0,.27-0.622,0.816,0.816,0,0,0-.22-0.56,0.838,0.838,0,0,0-1.18-.053l-13.9,12.685-0.54-.6-2.09-2.284,13.9-12.683a0.843,0.843,0,0,0,.27-0.622,0.818,0.818,0,0,0-.22-0.56,0.839,0.839,0,0,0-1.18-.052l-13.9,12.686-2.64-2.894,16.45-15.012a21.412,21.412,0,0,1,10.17,11.135Z" transform="translate(-1126.5 -796.156)"/>
</svg>
