<svg xmlns="http://www.w3.org/2000/svg" xmlns:xlink="http://www.w3.org/1999/xlink" width="40.094" height="40.188" viewBox="0 0 40.094 40.188">
  <metadata><?xpacket begin="﻿" id="W5M0MpCehiHzreSzNTczkc9d"?>
<x:xmpmeta xmlns:x="adobe:ns:meta/" x:xmptk="Adobe XMP Core 5.6-c138 79.159824, 2016/09/14-01:09:01        ">
   <rdf:RDF xmlns:rdf="http://www.w3.org/1999/02/22-rdf-syntax-ns#">
      <rdf:Description rdf:about=""/>
   </rdf:RDF>
</x:xmpmeta>
                                                                                                    
                                                                                                    
                                                                                                    
                                                                                                    
                                                                                                    
                                                                                                    
                                                                                                    
                                                                                                    
                                                                                                    
                                                                                                    
                                                                                                    
                                                                                                    
                                                                                                    
                                                                                                    
                                                                                                    
                                                                                                    
                                                                                                    
                                                                                                    
                                                                                                    
                                                                                                    
                           
<?xpacket end="w"?></metadata>
<defs>
    <style>
      .cls-1 {
        fill-rule: evenodd;
        fill: url(#linear-gradient);
        filter: url(#filter);
      }
    </style>
    <linearGradient id="linear-gradient" x1="845.75" y1="836.141" x2="805.656" y2="796.047" gradientUnits="userSpaceOnUse">
      <stop offset="0" stop-color="#NaNNaNNaN"/>
      <stop offset="1" stop-color="#fff"/>
    </linearGradient>
    <filter id="filter" x="805.656" y="796" width="40.094" height="40.188" filterUnits="userSpaceOnUse">
      <feFlood result="flood" flood-color="#ff3b4a"/>
      <feComposite result="composite" operator="in" in2="SourceGraphic"/>
      <feBlend result="blend" in2="SourceGraphic"/>
    </filter>
  </defs>
  <path id="Settings" class="cls-1" d="M825.711,821.657a5.564,5.564,0,1,1,5.544-5.565A5.562,5.562,0,0,1,825.711,821.657Zm0-9.686a4.122,4.122,0,1,0,4.106,4.121A4.12,4.12,0,0,0,825.711,811.971Zm-2.417,24.218a0.722,0.722,0,0,1-.7-0.545l-1.237-4.963a15.513,15.513,0,0,1-2.832-1.205l-4.4,2.649a0.722,0.722,0,0,1-.877-0.106l-3.419-3.431a0.719,0.719,0,0,1-.107-0.879l2.641-4.407a15.114,15.114,0,0,1-1.177-2.838l-4.975-1.247a0.724,0.724,0,0,1-.546-0.7v-4.844a0.72,0.72,0,0,1,.546-0.7l4.946-1.238a15.855,15.855,0,0,1,1.2-2.845l-2.642-4.415a0.724,0.724,0,0,1,.107-0.881l3.414-3.423a0.711,0.711,0,0,1,.88-0.108l4.4,2.646a15.259,15.259,0,0,1,2.826-1.177l1.243-4.99a0.721,0.721,0,0,1,.7-0.547h4.831a0.719,0.719,0,0,1,.7.547l1.237,4.966a16.111,16.111,0,0,1,2.83,1.2l4.406-2.652a0.738,0.738,0,0,1,.877.111l3.414,3.424a0.723,0.723,0,0,1,.11.882l-2.642,4.419a15.353,15.353,0,0,1,1.172,2.826l4.98,1.252a0.719,0.719,0,0,1,.546.7v4.841a0.717,0.717,0,0,1-.546.7l-4.98,1.252a15.122,15.122,0,0,1-1.169,2.829L841.7,827.7a0.723,0.723,0,0,1-.11.882l-3.414,3.43a0.73,0.73,0,0,1-.877.109l-4.406-2.652a15.772,15.772,0,0,1-2.832,1.205l-1.232,4.963a0.722,0.722,0,0,1-.7.545l-4.831,0h0Zm-4.779-8.267a0.72,0.72,0,0,1,.36.1,14.171,14.171,0,0,0,3.278,1.39,0.735,0.735,0,0,1,.5.523l1.2,4.815,3.706,0,1.2-4.817a0.726,0.726,0,0,1,.5-0.518,14.239,14.239,0,0,0,3.279-1.391,0.712,0.712,0,0,1,.728,0l4.281,2.58,2.623-2.635-2.571-4.289a0.73,0.73,0,0,1-.008-0.734,13.614,13.614,0,0,0,1.355-3.27,0.717,0.717,0,0,1,.519-0.509l4.84-1.217v-3.714l-4.84-1.216a0.712,0.712,0,0,1-.519-0.51,13.845,13.845,0,0,0-1.355-3.272,0.73,0.73,0,0,1,.008-0.73l2.566-4.29-2.621-2.628-4.28,2.576a0.707,0.707,0,0,1-.729.006,14.373,14.373,0,0,0-3.278-1.392,0.711,0.711,0,0,1-.5-0.517l-1.2-4.82h-3.706l-1.209,4.848a0.717,0.717,0,0,1-.509.52,13.938,13.938,0,0,0-3.268,1.362,0.7,0.7,0,0,1-.728-0.007l-4.276-2.574-2.62,2.631,2.566,4.285a0.724,0.724,0,0,1,0,.732,14.48,14.48,0,0,0-1.389,3.293,0.72,0.72,0,0,1-.519.506l-4.8,1.2v3.715l4.834,1.215a0.718,0.718,0,0,1,.519.511,13.782,13.782,0,0,0,1.36,3.275,0.721,0.721,0,0,1-.008.732l-2.566,4.284,2.624,2.632,4.275-2.576A0.72,0.72,0,0,1,818.515,827.922Z" transform="translate(-805.656 -796)"/>
</svg>
