<svg xmlns="http://www.w3.org/2000/svg" xmlns:xlink="http://www.w3.org/1999/xlink" width="44" height="33" viewBox="0 0 44 33">
  <metadata><?xpacket begin="﻿" id="W5M0MpCehiHzreSzNTczkc9d"?>
<x:xmpmeta xmlns:x="adobe:ns:meta/" x:xmptk="Adobe XMP Core 5.6-c138 79.159824, 2016/09/14-01:09:01        ">
   <rdf:RDF xmlns:rdf="http://www.w3.org/1999/02/22-rdf-syntax-ns#">
      <rdf:Description rdf:about=""/>
   </rdf:RDF>
</x:xmpmeta>
                                                                                                    
                                                                                                    
                                                                                                    
                                                                                                    
                                                                                                    
                                                                                                    
                                                                                                    
                                                                                                    
                                                                                                    
                                                                                                    
                                                                                                    
                                                                                                    
                                                                                                    
                                                                                                    
                                                                                                    
                                                                                                    
                                                                                                    
                                                                                                    
                                                                                                    
                                                                                                    
                           
<?xpacket end="w"?></metadata>
<defs>
    <style>
      .cls-1 {
        fill-rule: evenodd;
        fill: url(#linear-gradient);
        filter: url(#filter);
      }
    </style>
    <linearGradient id="linear-gradient" x1="1129.5" y1="1057" x2="1162.5" y2="1090" gradientUnits="userSpaceOnUse">
      <stop offset="0" stop-color="#fff"/>
      <stop offset="1" stop-color="#fff"/>
    </linearGradient>
    <filter id="filter" x="1124" y="1057" width="44" height="33" filterUnits="userSpaceOnUse">
      <feFlood result="flood" flood-color="#ff3b4a"/>
      <feComposite result="composite" operator="in" in2="SourceGraphic"/>
      <feBlend result="blend" in2="SourceGraphic"/>
    </filter>
  </defs>
  <path id="Truck_2" data-name="Truck 2" class="cls-1" d="M1167.95,1073.45v-10.41a0.783,0.783,0,0,0-.79-0.78h-15.04v-4.49a0.773,0.773,0,0,0-.78-0.77H1124.8a0.775,0.775,0,0,0-.79.77v26.2a0.783,0.783,0,0,0,.79.78h2.66a0.78,0.78,0,1,0,0-1.56h-1.88v-24.64h24.97v19.59a0.785,0.785,0,0,0,1.57,0v-14.32h6.34v9.72a0.79,0.79,0,0,0,.79.78h7.13v8.87h-1.85a0.78,0.78,0,1,0,0,1.56h2.63a0.783,0.783,0,0,0,.79-0.78v-10.34a0.631,0.631,0,0,0,.04-0.09A0.247,0.247,0,0,0,1167.95,1073.45Zm-1.57-.69h-6.34v-8.94h6.34v8.94Zm-9.78,5.19a6.02,6.02,0,1,0,6.08,6.02A6.061,6.061,0,0,0,1156.6,1077.95Zm0,10.48a4.46,4.46,0,1,1,4.51-4.46A4.488,4.488,0,0,1,1156.6,1088.43Zm-21.2-10.48a6.02,6.02,0,1,0,6.09,6.02A6.061,6.061,0,0,0,1135.4,1077.95Zm0,10.48a4.46,4.46,0,1,1,4.51-4.46A4.5,4.5,0,0,1,1135.4,1088.43Zm13.27-5.24h-5.34a0.78,0.78,0,1,0,0,1.56h5.34A0.78,0.78,0,0,0,1148.67,1083.19Z" transform="translate(-1124 -1057)"/>
</svg>
