<?xml version="1.0" ?><svg style="enable-background:new 0 0 512 512;" version="1.1" viewBox="0 0 512 512" xml:space="preserve" xmlns="http://www.w3.org/2000/svg" xmlns:xlink="http://www.w3.org/1999/xlink"><g id="outerdark"><path d="M256.5,20C126.4,20,21,125.4,21,255.5S126.4,491,256.5,491S492,385.6,492,255.5S386.6,20,256.5,20z    M256,460.5c-112.9,0-204.5-91.6-204.5-204.5S143.1,51.5,256,51.5S460.5,143.1,460.5,256S368.9,460.5,256,460.5z" style="fill:#00ACEE;"/></g><g id="outerlight"><path d="M423.1,89l-22.4,22.4c37,37,59.8,88.1,59.8,144.6c0,112.9-91.6,204.5-204.5,204.5   c-56.4,0-107.6-22.9-144.6-59.8L90,422.1c92,92,241.1,92,333,0S515,181,423.1,89z" style="opacity:0.2;fill:#FFFFFF;"/></g><g id="innerdark"><circle cx="256" cy="256" r="180" style="fill:#00ACEE;"/></g><g id="Twitter"><path d="M360.4,190.5c-7.6,3.3-15.7,5.5-24.2,6.6c-0.1-0.2-0.1-0.3-0.2-0.5   c9-5.3,16-13.7,19.4-23.7c-2.6,1.6-15.2,8.7-27.5,11c-8-8.8-19.5-14.3-32.4-14.3c-27.1,0-43.8,22.2-43.8,43.8c0,1.7,0.8,8.6,0.9,9   c-36.4-0.8-68.7-18.3-89.5-45.2c-14.9,27.1,0.7,50.6,11.4,59c-6.2-0.1-12.1-1.4-17.5-3.8c1.1,20.9,16.2,38,36.1,42.2   c-8,2.2-17.5,0.5-21.2-0.4c5.9,17.4,21.9,30.2,41.1,31.1c-29.4,21.6-61,19.4-61.6,19.4c18.6,11.2,40.4,17.7,63.7,17.6   c85.3-0.6,129.1-76.3,123.9-130.6C348.5,207.4,356.1,199.9,360.4,190.5z" id="Big_Icon" style="fill:#E6E7E8;"/></g><g id="innerlight"><path d="M128.1,382.6c-70.3-70.3-70.3-184.3,0-254.6s184.3-70.3,254.6,0" style="opacity:0.2;fill:#FFFFFF;"/><g/><g/><g/><g/><g/><g/></g></svg>